# xmcd
#
# Track frame offsets: 
#        150
#        3305
#        25692
#        32533
#        54494
#        60659
#        86206
#        94462
#        111401
#        118076
#        136407
#        140262
#        162082
#        163996
#        181268
#        183491
#        200982
#        209477
#        226540
#        230355
#        248082
#        249512
#        271194
#        298309
#        315870
#
# Disc length: 4455 seconds
#
# Revision: 1
# Processed by: cddbd v1.5.2PL0 Copyright (c) Steve Scherf et al.
# Submitted via: ExactAudioCopy v0.99pb5
#
DISCID=63116519
DTITLE=Lucinda Williams - NY [3 Car Wheels on a Gravel Road]
DYEAR=2007
DGENRE=Folk/Rock
TTITLE0="Hey everybody"
TTITLE1=Right In Time
TTITLE2="Got some special guests"
TTITLE3=Car Wheels on a Gravel Road
TTITLE4="This is truly an honor"
TTITLE5=2 Kool 2 Be 4-gotten
TTITLE6="I still get a little"
TTITLE7=Drunken Angel
TTITLE8="'Course, I can't begin"
TTITLE9=Concrete and Barbed Wire
TTITLE10="All the images"
TTITLE11=Lake Charles
TTITLE12="This is a song written by"
TTITLE13=Can't Let Go
TTITLE14="This is a song I wrote"
TTITLE15=I Lost It
TTITLE16="I made the mistake"
TTITLE17=Metal Firecracker
TTITLE18="Susan's an incredible"
TTITLE19=Greenville [w. Susan Marshall]
TTITLE20="from Portland"
TTITLE21=Still I Long For Your Kiss
TTITLE22=Joy [w. Steve Earle and Susan Marshall]
TTITLE23="Let me introduce the band"
TTITLE24=Jackson
EXTD=
EXTT0=
EXTT1=
EXTT2=
EXTT3=
EXTT4=
EXTT5=
EXTT6=
EXTT7=
EXTT8=
EXTT9=
EXTT10=
EXTT11=
EXTT12=
EXTT13=
EXTT14=
EXTT15=
EXTT16=
EXTT17=
EXTT18=
EXTT19=
EXTT20=
EXTT21=
EXTT22=
EXTT23=
EXTT24=
PLAYORDER=
